<?xml version="1.0" encoding="utf-8"?>
<!-- Generator: Adobe Illustrator 26.5.1, SVG Export Plug-In . SVG Version: 6.00 Build 0)  -->
<svg version="1.1" xmlns="http://www.w3.org/2000/svg" xmlns:xlink="http://www.w3.org/1999/xlink" x="0px" y="0px"
	 viewBox="0 0 1500 1500" style="enable-background:new 0 0 1500 1500;" xml:space="preserve">
<style type="text/css">
	.st0{fill:#FDEDD2;}
	.st1{fill:#1F4134;}
	.st2{fill:#D45D79;}
	.st3{font-family:'KeplerStd-BoldScnDisp';}
	.st4{font-size:560.8094px;}
</style>
<g id="_x31_500_x__x_1500_px_Logo_6_00000021096298313549458510000009275524996549615749_">
	<g id="Background">
	</g>
	<g id="Graphic_Elements">
	</g>
	<g id="Text">
	</g>
</g>
<g id="_x31_500_x__x_1500_px_Logo_5">
	<g id="Background_00000029758532414319215790000008395826675854190241_">
		<rect x="1629.78" y="1629.31" class="st0" width="1500" height="1500"/>
	</g>
	<g id="Graphic_Elements_00000090263991002753186560000001846286082251337645_">
		<g>
			<g>
				<g>
					<path class="st1" d="M2677.36,2404.89c-0.91-3.21-4.24-5.1-7.52-4.52l-3.62,0.63c-4.02,0.7-7.84-1.98-8.54-6l-1.5-8.58
						c-0.66-3.74-5.25-5.19-7.93-2.51l0,0c-2.68,2.68-7.28,1.23-7.93-2.51l-1.76-10.01c-0.7-4.02-4.53-6.7-8.54-6l-3.2,0.56
						c-4.02,0.7-7.84-1.98-8.54-6l-1.42-8.09c-0.7-4.02-4.53-6.7-8.54-6l-8.09,1.42c-4.02,0.7-7.84-1.98-8.54-6l-0.56-3.2
						c-0.7-4.02-4.53-6.7-8.54-6l-6.52,1.14c-3.96,0.69-7.9-1.88-8.52-5.86c-0.64-4.09-4.51-6.85-8.57-6.14l-5.09,0.89
						c-4.02,0.7-7.84-1.98-8.54-6l-0.63-3.62c-0.58-3.28-3.49-5.77-6.81-5.53c-4,0.29-6.71,4.04-5.84,7.85
						c5.12,22.43,19.64,96.74-2.13,137.43c-0.78,1.46-1.09,3.06-0.96,4.61c0.32,3.9-0.11,7.82-1.72,11.38
						c-8.27,18.33-13.93,37.91-16.72,50.99c-9.32,43.68-16.04,70.13-20.34,85.48c-14.05,42.27-20.67,70.89-54.32,99.17
						c0,0,126.25,5.58,154.23-37.07c30.91-47.12,41.7-131.52,41.7-131.52s-55.6,108-102.65,119.76c0,0,18.86-9.18,41.7-95.17
						c15.18-57.15,37.59-95.33,72.71-101.58c0,0-84-9.5-127.78,82.02c-3.52,7.37-6.66,14.4-9.5,21.14
						c2.71-11.64,5.75-25.26,9.15-41.17c2.96-13.87,7.84-29.79,14.08-44.58c2.19-5.18,6.09-9.59,11.22-11.9
						c1.03-0.46,1.98-1.14,2.78-2.03c30.86-34.32,105.68-45.94,128.51-48.75C2675.85,2412.57,2678.45,2408.75,2677.36,2404.89z
						 M2530.14,2678.38c6.98-2.99,13.84-6.28,20.34-10.19c12.99-7.8,24.81-17.59,34.6-29.22c4.88-5.82,9.3-12.05,13.14-18.64
						c3.82-6.6,7.18-13.52,9.54-20.85c-1.51,7.57-4.42,14.82-7.82,21.78c-3.5,6.92-7.65,13.54-12.45,19.67
						c-4.76,6.17-10.2,11.8-16.06,16.95c-5.89,5.12-12.26,9.67-18.91,13.74c-6.72,3.97-13.77,7.32-20.97,10.27l-5.49,1.97
						l-2.75,0.98l-2.79,0.84l-5.58,1.68l-5.66,1.36c-15.1,3.55-30.6,5.1-46,4.84c15.33-1.41,30.52-3.82,45.23-7.87l5.5-1.56
						l5.43-1.79l2.71-0.89l2.66-1.03L2530.14,2678.38z M2518.29,2631.68c3.39-8.32,6.22-16.88,8.6-25.59
						c0.63-2.16,1.14-4.37,1.72-6.55c0.55-2.19,1.15-4.37,1.66-6.57c1-4.42,1.96-8.81,3-13.25l1.63-6.67
						c0.55-2.22,1.05-4.46,1.75-6.64l1.97-6.58c0.34-1.09,0.63-2.2,1.01-3.28l1.17-3.23l2.35-6.45c0.84-2.13,1.77-4.22,2.66-6.34
						c1.68-4.26,3.86-8.31,5.85-12.43c4.3-8.09,9.14-15.89,14.69-23.16c1.41-1.8,2.79-3.62,4.31-5.33l2.23-2.6l2.35-2.49
						c3.16-3.29,6.49-6.43,10.17-9.11c-3.41,3-6.44,6.39-9.35,9.85l-2.15,2.62l-2.05,2.7c-1.4,1.77-2.65,3.65-3.94,5.51
						c-5.11,7.44-9.5,15.34-13.49,23.41l-2.78,6.16c-0.97,2.03-1.79,4.13-2.62,6.22c-0.82,2.09-1.69,4.17-2.48,6.28l-2.18,6.39
						l-1.1,3.19c-0.37,1.06-0.65,2.16-0.97,3.23l-1.9,6.48c-0.68,2.15-1.16,4.35-1.68,6.54l-1.56,6.58l-3.11,13.3
						c-0.53,2.22-1.15,4.42-1.73,6.63c-0.61,2.2-1.11,4.43-1.81,6.61c-1.36,4.37-2.64,8.75-4.25,13.05
						c-1.46,4.34-3.27,8.57-5.13,12.76c-1.02,2.06-1.96,4.16-3.03,6.19c-1.15,2-2.2,4.05-3.45,5.98l-1.91,2.88l-0.96,1.43
						l-1.06,1.37l-2.12,2.73c-0.76,0.87-1.54,1.72-2.32,2.57l-1.17,1.27l-1.26,1.18c-0.85,0.78-1.66,1.6-2.55,2.33l-2.68,2.17
						c-0.89,0.72-1.86,1.34-2.79,2.01c-3.76,2.61-7.71,4.87-11.65,7.13c3.71-2.62,7.46-5.2,10.99-8.02c0.86-0.73,1.76-1.41,2.6-2.16
						l2.49-2.28c0.82-0.77,1.56-1.62,2.34-2.42l1.15-1.22l1.06-1.3C2510.57,2647.93,2514.84,2639.96,2518.29,2631.68z
						 M2616.48,2407.81l-13.57,6.36l-3.39,1.6c-1.12,0.55-2.24,1.11-3.37,1.64c-2.25,1.1-4.56,2.07-6.79,3.21
						c-2.25,1.11-4.5,2.21-6.71,3.39c-2.19,1.21-4.34,2.5-6.47,3.81c-1.06,0.67-2.12,1.33-3.15,2.04l-3.05,2.19l-3.04,2.21
						c-1.02,0.73-2.04,1.45-3.03,2.21c-2.01,1.49-4.05,2.92-6.13,4.3c-1.05,0.67-2.06,1.41-3.07,2.14l-3.07,2.15
						c-4.18,2.75-8.09,5.84-12.37,8.55l-0.1-0.11l0,0l-0.14-0.05c1.12-4.89,2.74-9.56,3.94-14.37l1-3.57c0.35-1.18,0.72-2.37,1-3.57
						c0.6-2.4,1.28-4.78,2-7.14c0.38-1.18,0.73-2.37,1.07-3.56l1.07-3.57l1.05-3.58c0.34-1.2,0.6-2.41,0.88-3.62
						c0.52-2.43,1.02-4.86,1.43-7.31c0.37-2.45,0.66-4.92,0.95-7.39c0.32-2.46,0.47-4.95,0.75-7.41c0.12-1.23,0.28-2.46,0.42-3.69
						l0.38-3.7l1.45-14.79c1.04-9.85,2.02-19.71,3.14-29.61l0.3,0c0.42,4.98,0.54,9.98,0.46,14.96c-0.05,4.99-0.34,9.97-0.71,14.94
						c-0.45,4.97-1.05,9.92-1.82,14.85c-0.34,2.47-0.75,4.93-1.22,7.38c-0.47,2.45-0.94,4.9-1.51,7.33
						c-0.55,2.43-1.1,4.86-1.57,7.31c-0.53,2.43-1.03,4.87-1.47,7.32l-1.26,7.37c-0.43,2.46-0.76,4.94-1.33,7.37
						c-0.56,2.43-1.18,4.85-1.87,7.25c-0.66,2.41-1.53,4.76-2.34,7.12c-0.22,0.63-0.44,1.26-0.67,1.89
						c0.17-0.36,0.33-0.72,0.51-1.08c1.01-2.13,2.06-4.23,3.12-6.32c1.05-2.1,2.06-4.22,3.18-6.29c2.28-4.12,4.6-8.23,6.63-12.49
						c0.99-2.14,1.88-4.32,2.75-6.51c0.89-2.18,1.66-4.41,2.38-6.66c1.49-4.47,2.91-8.96,4.45-13.4l4.34-13.41l8.9-26.81l0.29,0.06
						c-1.11,9.44-3.4,18.67-6.14,27.72c-0.74,2.25-1.42,4.52-2.25,6.74l-2.47,6.66c-0.87,2.2-1.74,4.4-2.66,6.58
						c-0.9,2.19-1.96,4.31-2.93,6.47l-2.97,6.44c-0.99,2.15-1.88,4.33-2.79,6.51c-1.88,4.33-3.32,8.87-5.27,13.18
						c-0.81,1.9-1.71,3.75-2.65,5.58c1.21-1.73,2.45-3.44,3.74-5.11c2.91-3.76,6.06-7.35,8.88-11.18c2.83-3.81,5.46-7.78,7.98-11.81
						c2.51-4.04,5.08-8.04,7.77-11.96c2.65-3.94,5.33-7.87,8.11-11.72c5.62-7.67,11.4-15.21,17.69-22.4l0.24,0.17
						c-4.72,8.3-9.94,16.25-15.33,24.08c-2.73,3.89-5.55,7.71-8.4,11.51c-2.82,3.83-5.75,7.57-8.74,11.27
						c-2.98,3.71-5.86,7.49-8.53,11.42c-2.68,3.92-5.04,8.08-7.63,12.06c-1.15,1.75-2.34,3.46-3.56,5.16c1.44-1.51,2.91-3,4.46-4.41
						c3.45-3.28,7.28-6.15,10.76-9.37c1.76-1.59,3.54-3.16,5.25-4.81l5.13-4.95c1.72-1.64,3.39-3.35,5.17-4.93
						c1.77-1.59,3.57-3.15,5.36-4.71l5.5-4.56c1.83-1.52,3.76-2.92,5.64-4.37c7.68-5.62,15.67-10.86,24.24-15.07l0.16,0.26
						l-22.47,17.37l-11.28,8.58c-3.7,2.94-7.49,5.77-11.24,8.67l-2.81,2.18c-0.92,0.75-1.82,1.51-2.72,2.29
						c-1.79,1.55-3.57,3.11-5.27,4.76c-3.36,3.34-6.5,6.9-9.66,10.43c-1.59,1.75-3.27,3.41-4.92,5.1c-1.63,1.71-3.28,3.4-4.97,5.06
						c-0.26,0.27-0.53,0.53-0.8,0.79c0.52-0.42,1.04-0.83,1.56-1.25c3.89-3.21,8.02-6.12,12.27-8.81c2.12-1.36,4.37-2.51,6.57-3.74
						l6.59-3.67c2.18-1.24,4.33-2.54,6.47-3.86c2.17-1.27,4.29-2.61,6.43-3.94c2.12-1.36,4.29-2.63,6.46-3.9
						c2.17-1.28,4.38-2.48,6.61-3.64c4.43-2.39,8.94-4.63,13.51-6.74c4.6-2.04,9.24-4,13.96-5.73c4.71-1.77,9.5-3.34,14.37-4.64
						l0.1,0.28C2634.54,2399.24,2625.5,2403.5,2616.48,2407.81z"/>
					<path class="st1" d="M2515.79,2218.27c43.78,91.52,127.78,82.02,127.78,82.02c-35.12-6.26-57.53-44.44-72.71-101.58
						c-22.85-85.99-41.7-95.17-41.7-95.17c47.05,11.76,102.65,119.76,102.65,119.76s-10.8-84.41-41.7-131.52
						c-27.98-42.65-154.23-37.07-154.23-37.07C2484.25,2095.34,2476.76,2136.69,2515.79,2218.27z M2530.59,2151.49
						c0.7,2.18,1.2,4.41,1.81,6.61c0.57,2.21,1.19,4.41,1.73,6.63l3.11,13.3l1.56,6.58c0.52,2.19,1,4.4,1.68,6.54l1.9,6.48
						c0.33,1.08,0.6,2.17,0.98,3.23l1.1,3.19l2.18,6.39c0.79,2.11,1.66,4.18,2.48,6.28c0.83,2.09,1.65,4.19,2.62,6.22l2.78,6.16
						c3.99,8.07,8.38,15.97,13.49,23.41c1.28,1.86,2.54,3.74,3.94,5.51l2.05,2.7l2.15,2.62c2.91,3.46,5.94,6.84,9.35,9.85
						c-3.68-2.68-7.01-5.83-10.17-9.11l-2.35-2.49l-2.23-2.6c-1.52-1.71-2.9-3.53-4.31-5.33c-5.55-7.27-10.39-15.07-14.69-23.16
						c-1.99-4.12-4.17-8.16-5.85-12.43c-0.88-2.11-1.81-4.21-2.66-6.34l-2.35-6.45l-1.17-3.23c-0.38-1.08-0.67-2.19-1.01-3.28
						l-1.97-6.58c-0.71-2.18-1.21-4.41-1.75-6.64l-1.63-6.67c-1.05-4.44-2-8.83-3-13.25c-0.51-2.2-1.11-4.38-1.66-6.57
						c-0.58-2.18-1.09-4.39-1.72-6.55c-2.38-8.71-5.21-17.27-8.6-25.59c-3.45-8.28-7.72-16.25-13.47-23.11l-1.06-1.3l-1.15-1.22
						c-0.78-0.8-1.52-1.65-2.34-2.42l-2.49-2.28c-0.84-0.75-1.73-1.43-2.6-2.16c-3.52-2.82-7.27-5.4-10.99-8.02
						c3.94,2.26,7.89,4.52,11.65,7.13c0.93,0.67,1.89,1.29,2.79,2.01l2.68,2.17c0.88,0.73,1.69,1.55,2.55,2.33l1.26,1.18l1.17,1.27
						c0.78,0.85,1.56,1.7,2.32,2.57l2.12,2.73l1.06,1.37l0.96,1.43l1.91,2.88c1.25,1.94,2.3,3.99,3.45,5.98
						c1.07,2.03,2.02,4.13,3.03,6.19c1.86,4.19,3.67,8.42,5.13,12.76C2527.94,2142.73,2529.22,2147.12,2530.59,2151.49z
						 M2509.34,2069.89l5.66,1.36l5.58,1.68l2.79,0.84l2.75,0.98l5.49,1.97c7.2,2.95,14.25,6.3,20.97,10.27
						c6.65,4.07,13.02,8.62,18.91,13.74c5.86,5.15,11.3,10.78,16.06,16.95c4.8,6.14,8.95,12.76,12.45,19.67
						c3.4,6.96,6.31,14.21,7.82,21.78c-2.36-7.33-5.72-14.25-9.54-20.85c-3.85-6.59-8.26-12.82-13.14-18.64
						c-9.79-11.63-21.61-21.42-34.6-29.22c-6.5-3.91-13.35-7.2-20.34-10.19l-5.32-2.06l-2.66-1.03l-2.71-0.89l-5.43-1.79l-5.5-1.56
						c-14.71-4.05-29.9-6.46-45.23-7.87C2478.74,2064.79,2494.24,2066.34,2509.34,2069.89z"/>
					<path class="st1" d="M2243.77,2540.34c-43.78-91.52-127.78-82.02-127.78-82.02c35.12,6.26,57.53,44.44,72.71,101.58
						c22.85,85.99,41.7,95.17,41.7,95.17c-47.05-11.76-102.65-119.76-102.65-119.76s10.8,84.41,41.7,131.52
						c27.98,42.65,154.23,37.07,154.23,37.07C2275.32,2663.27,2282.8,2621.93,2243.77,2540.34z M2228.98,2607.13
						c-0.7-2.18-1.2-4.41-1.81-6.61c-0.57-2.21-1.19-4.41-1.73-6.63l-3.11-13.3l-1.56-6.58c-0.52-2.19-1-4.4-1.68-6.54l-1.9-6.48
						c-0.33-1.08-0.6-2.17-0.98-3.23l-1.1-3.19l-2.18-6.39c-0.79-2.11-1.66-4.18-2.48-6.28c-0.83-2.09-1.65-4.19-2.62-6.22
						l-2.78-6.16c-3.99-8.07-8.38-15.97-13.49-23.41c-1.28-1.86-2.54-3.74-3.94-5.51l-2.05-2.7l-2.15-2.62
						c-2.91-3.46-5.94-6.84-9.35-9.85c3.68,2.68,7.01,5.83,10.17,9.11l2.35,2.49l2.23,2.6c1.52,1.71,2.9,3.53,4.31,5.33
						c5.55,7.27,10.39,15.07,14.69,23.16c1.99,4.12,4.17,8.16,5.85,12.43c0.88,2.11,1.81,4.21,2.66,6.34l2.35,6.45l1.17,3.23
						c0.38,1.08,0.67,2.19,1.01,3.28l1.97,6.58c0.71,2.18,1.21,4.41,1.75,6.64l1.63,6.67c1.05,4.44,2,8.83,3,13.25
						c0.51,2.2,1.11,4.38,1.66,6.57c0.58,2.18,1.09,4.39,1.72,6.55c2.38,8.71,5.21,17.27,8.6,25.59
						c3.45,8.28,7.72,16.25,13.47,23.11l1.06,1.3l1.15,1.22c0.78,0.8,1.52,1.65,2.34,2.42l2.49,2.28c0.84,0.75,1.73,1.43,2.6,2.16
						c3.52,2.82,7.27,5.4,10.99,8.02c-3.94-2.26-7.89-4.52-11.65-7.13c-0.93-0.67-1.89-1.29-2.79-2.01l-2.68-2.17
						c-0.88-0.73-1.69-1.55-2.55-2.33l-1.26-1.18l-1.17-1.27c-0.78-0.85-1.56-1.7-2.32-2.57l-2.12-2.73l-1.06-1.37l-0.96-1.43
						l-1.91-2.88c-1.25-1.94-2.3-3.99-3.45-5.98c-1.07-2.03-2.02-4.13-3.03-6.19c-1.86-4.19-3.67-8.42-5.13-12.76
						C2231.62,2615.88,2230.34,2611.49,2228.98,2607.13z M2250.22,2688.73l-5.66-1.36l-5.58-1.68l-2.79-0.84l-2.75-0.98l-5.49-1.97
						c-7.2-2.95-14.25-6.3-20.97-10.27c-6.65-4.07-13.02-8.62-18.91-13.74c-5.86-5.15-11.3-10.78-16.06-16.95
						c-4.8-6.14-8.95-12.76-12.45-19.67c-3.4-6.96-6.31-14.21-7.82-21.78c2.36,7.33,5.72,14.25,9.54,20.85
						c3.85,6.59,8.26,12.82,13.14,18.64c9.79,11.63,21.61,21.42,34.6,29.22c6.5,3.91,13.35,7.2,20.34,10.19l5.32,2.06l2.66,1.03
						l2.71,0.89l5.43,1.79l5.5,1.56c14.71,4.05,29.9,6.46,45.23,7.87C2280.83,2693.82,2265.33,2692.28,2250.22,2688.73z"/>
					<path class="st1" d="M2119.25,2377.2l1.75,10.01c0.7,4.02,4.53,6.7,8.54,6l3.2-0.56c4.02-0.7,7.84,1.98,8.54,6l1.42,8.09
						c0.7,4.02,4.53,6.7,8.54,6l8.09-1.42c4.02-0.7,7.84,1.98,8.54,6l0.56,3.2c0.7,4.02,4.53,6.7,8.54,6l6.52-1.14
						c3.96-0.69,7.9,1.88,8.52,5.86c0.64,4.09,4.51,6.85,8.57,6.14l5.09-0.89c4.02-0.7,7.84,1.98,8.54,6l0.63,3.62
						c0.58,3.28,3.49,5.77,6.81,5.53c4-0.29,6.71-4.04,5.84-7.85c-5.12-22.43-19.65-96.74,2.13-137.43
						c0.78-1.46,1.09-3.06,0.96-4.61c-0.32-3.9,0.12-7.82,1.72-11.38c8.27-18.33,13.93-37.91,16.72-50.99
						c9.32-43.68,16.04-70.13,20.34-85.48c14.05-42.27,20.67-70.89,54.32-99.17c0,0-126.25-5.58-154.23,37.07
						c-30.91,47.12-41.7,131.52-41.7,131.52s55.6-108,102.65-119.76c0,0-18.86,9.18-41.7,95.17
						c-15.18,57.15-37.59,95.33-72.71,101.58c0,0,84,9.5,127.78-82.02c3.52-7.37,6.66-14.4,9.5-21.14
						c-2.71,11.64-5.75,25.26-9.15,41.17c-2.96,13.87-7.84,29.79-14.08,44.58c-2.19,5.18-6.09,9.59-11.22,11.9
						c-1.03,0.46-1.98,1.14-2.78,2.03c-30.86,34.32-105.68,45.94-128.51,48.75c-3.88,0.48-6.48,4.3-5.39,8.16
						c0.91,3.21,4.24,5.1,7.52,4.52l3.62-0.63c4.02-0.7,7.84,1.98,8.54,6l1.5,8.58c0.66,3.74,5.25,5.19,7.93,2.51l0,0
						C2114,2372.01,2118.6,2373.46,2119.25,2377.2z M2229.43,2080.23c-6.98,2.99-13.84,6.28-20.34,10.19
						c-13,7.8-24.81,17.59-34.6,29.22c-4.88,5.82-9.3,12.05-13.14,18.64c-3.82,6.6-7.18,13.52-9.54,20.85
						c1.51-7.57,4.42-14.82,7.82-21.78c3.5-6.92,7.65-13.54,12.45-19.67c4.76-6.17,10.2-11.8,16.06-16.95
						c5.89-5.12,12.26-9.67,18.91-13.74c6.72-3.97,13.77-7.32,20.97-10.27l5.49-1.97l2.75-0.98l2.79-0.84l5.58-1.68l5.66-1.36
						c15.1-3.55,30.6-5.1,46-4.84c-15.33,1.41-30.52,3.82-45.23,7.87l-5.5,1.56l-5.43,1.79l-2.71,0.89l-2.66,1.03L2229.43,2080.23z
						 M2241.27,2126.94c-3.39,8.32-6.22,16.88-8.6,25.59c-0.63,2.16-1.14,4.37-1.72,6.55c-0.55,2.19-1.15,4.37-1.66,6.57
						c-1,4.42-1.96,8.81-3,13.25l-1.63,6.67c-0.55,2.22-1.05,4.46-1.75,6.64l-1.97,6.58c-0.34,1.09-0.63,2.2-1.01,3.28l-1.17,3.23
						l-2.35,6.45c-0.85,2.13-1.77,4.22-2.66,6.34c-1.68,4.26-3.86,8.31-5.85,12.43c-4.3,8.09-9.14,15.89-14.69,23.16
						c-1.41,1.8-2.79,3.62-4.31,5.33l-2.23,2.6l-2.35,2.49c-3.16,3.29-6.49,6.43-10.17,9.11c3.41-3,6.44-6.39,9.35-9.85l2.15-2.62
						l2.05-2.7c1.4-1.77,2.65-3.65,3.94-5.51c5.11-7.44,9.5-15.34,13.49-23.41l2.78-6.16c0.97-2.03,1.79-4.13,2.62-6.22
						c0.82-2.09,1.69-4.17,2.48-6.28l2.18-6.39l1.1-3.19c0.37-1.06,0.65-2.16,0.97-3.23l1.9-6.48c0.68-2.15,1.16-4.35,1.68-6.54
						l1.56-6.58l3.11-13.3c0.53-2.22,1.15-4.42,1.73-6.63c0.61-2.2,1.11-4.43,1.81-6.61c1.36-4.37,2.64-8.75,4.25-13.05
						c1.46-4.34,3.27-8.57,5.13-12.76c1.02-2.06,1.96-4.16,3.04-6.19c1.15-2,2.2-4.05,3.45-5.98l1.91-2.88l0.96-1.43l1.06-1.37
						l2.12-2.73c0.76-0.87,1.54-1.72,2.32-2.57l1.17-1.27l1.26-1.18c0.85-0.78,1.66-1.6,2.55-2.33l2.68-2.17
						c0.89-0.72,1.86-1.34,2.79-2.01c3.76-2.61,7.71-4.87,11.65-7.13c-3.71,2.62-7.46,5.2-10.99,8.02c-0.86,0.73-1.76,1.41-2.6,2.16
						l-2.49,2.28c-0.82,0.77-1.56,1.62-2.34,2.42l-1.15,1.22l-1.06,1.3C2248.99,2110.69,2244.72,2118.66,2241.27,2126.94z
						 M2115.99,2363.79c9.04-4.42,18.08-8.68,27.1-12.99l13.57-6.36l3.39-1.6c1.12-0.55,2.24-1.11,3.37-1.64
						c2.25-1.1,4.56-2.07,6.79-3.21c2.25-1.11,4.5-2.21,6.71-3.39c2.19-1.21,4.34-2.5,6.47-3.81c1.06-0.67,2.12-1.33,3.15-2.04
						l3.05-2.19l3.04-2.21c1.02-0.73,2.04-1.45,3.03-2.21c2.01-1.49,4.05-2.92,6.13-4.3c1.05-0.67,2.06-1.41,3.07-2.14l3.07-2.15
						c4.18-2.75,8.09-5.84,12.37-8.55l0.1,0.11v0l0.14,0.05c-1.12,4.89-2.74,9.56-3.94,14.37l-1,3.57c-0.35,1.18-0.71,2.37-1,3.57
						c-0.6,2.4-1.28,4.78-2,7.14c-0.38,1.18-0.73,2.37-1.07,3.56l-1.07,3.57l-1.05,3.58c-0.34,1.2-0.6,2.41-0.88,3.62
						c-0.52,2.43-1.02,4.86-1.43,7.31c-0.37,2.45-0.66,4.92-0.95,7.39c-0.32,2.46-0.47,4.95-0.75,7.41
						c-0.12,1.23-0.28,2.46-0.42,3.69l-0.38,3.7l-1.45,14.79c-1.04,9.85-2.02,19.71-3.14,29.61l-0.3,0
						c-0.42-4.98-0.54-9.98-0.46-14.96c0.05-4.99,0.34-9.97,0.71-14.94c0.45-4.97,1.05-9.92,1.82-14.85
						c0.34-2.47,0.75-4.93,1.22-7.38c0.47-2.45,0.94-4.9,1.51-7.33c0.55-2.43,1.1-4.86,1.57-7.31c0.53-2.43,1.03-4.87,1.47-7.32
						l1.26-7.37c0.43-2.46,0.76-4.94,1.33-7.37c0.56-2.43,1.18-4.85,1.87-7.25c0.66-2.41,1.53-4.76,2.34-7.12
						c0.22-0.63,0.44-1.26,0.67-1.89c-0.17,0.36-0.33,0.72-0.51,1.08c-1.01,2.13-2.06,4.23-3.12,6.32c-1.05,2.1-2.06,4.22-3.18,6.29
						c-2.28,4.12-4.6,8.23-6.63,12.49c-1,2.14-1.88,4.32-2.75,6.51c-0.89,2.18-1.66,4.41-2.38,6.66c-1.49,4.47-2.91,8.96-4.45,13.4
						l-4.34,13.41l-8.9,26.81l-0.29-0.06c1.11-9.44,3.4-18.67,6.14-27.72c0.74-2.25,1.42-4.52,2.25-6.74l2.47-6.66
						c0.87-2.2,1.74-4.4,2.66-6.58c0.9-2.19,1.96-4.31,2.93-6.47l2.97-6.44c0.99-2.15,1.88-4.33,2.79-6.51
						c1.88-4.33,3.32-8.87,5.27-13.18c0.81-1.9,1.71-3.75,2.65-5.58c-1.21,1.73-2.45,3.44-3.74,5.11
						c-2.91,3.76-6.06,7.35-8.88,11.18c-2.83,3.81-5.46,7.78-7.98,11.81c-2.51,4.04-5.08,8.04-7.77,11.96
						c-2.65,3.94-5.33,7.87-8.11,11.72c-5.62,7.67-11.4,15.21-17.69,22.4l-0.24-0.17c4.72-8.3,9.94-16.25,15.33-24.08
						c2.73-3.89,5.55-7.71,8.4-11.51c2.82-3.83,5.75-7.57,8.74-11.27c2.98-3.71,5.86-7.49,8.53-11.42
						c2.68-3.92,5.04-8.08,7.63-12.06c1.15-1.75,2.34-3.46,3.56-5.16c-1.44,1.51-2.91,3-4.46,4.41c-3.45,3.28-7.28,6.15-10.76,9.37
						c-1.76,1.59-3.54,3.16-5.25,4.81l-5.13,4.95c-1.72,1.64-3.39,3.35-5.17,4.93c-1.77,1.59-3.57,3.15-5.36,4.71l-5.5,4.56
						c-1.83,1.52-3.76,2.92-5.64,4.37c-7.68,5.62-15.67,10.86-24.24,15.07l-0.15-0.26l22.47-17.37l11.28-8.58
						c3.7-2.94,7.49-5.77,11.24-8.67l2.81-2.18c0.92-0.75,1.82-1.51,2.72-2.29c1.79-1.55,3.57-3.11,5.27-4.76
						c3.36-3.34,6.5-6.9,9.66-10.43c1.59-1.75,3.27-3.41,4.92-5.1c1.63-1.71,3.28-3.4,4.97-5.06c0.26-0.27,0.53-0.53,0.8-0.79
						c-0.52,0.42-1.04,0.83-1.56,1.25c-3.89,3.21-8.02,6.12-12.27,8.81c-2.12,1.36-4.37,2.51-6.57,3.74l-6.59,3.67
						c-2.18,1.24-4.33,2.54-6.47,3.86c-2.17,1.27-4.29,2.61-6.43,3.94c-2.12,1.36-4.29,2.63-6.46,3.9
						c-2.17,1.28-4.38,2.48-6.61,3.64c-4.43,2.39-8.94,4.63-13.51,6.74c-4.6,2.04-9.24,4-13.96,5.73c-4.71,1.77-9.5,3.34-14.37,4.64
						L2115.99,2363.79z"/>
					<path class="st1" d="M2484.2,2567.95c3.51-3.13,3.47-8.69-0.26-11.76c-3.09-2.55-7.68-2.14-10.53,0.68l-3.15,3.11
						c-3.49,3.45-9.11,3.41-12.56-0.07l-7.37-7.45c-3.21-3.25-8.75-1.53-9.56,2.96v0c-0.81,4.49-6.35,6.21-9.56,2.96l-8.59-8.7
						c-3.45-3.49-9.07-3.52-12.56-0.07l-2.78,2.75c-3.49,3.45-9.11,3.41-12.56-0.07l-6.95-7.03c-3.45-3.49-9.07-3.52-12.56-0.07
						l-7.03,6.95c-3.49,3.45-9.11,3.41-12.56-0.07l-2.75-2.78c-3.45-3.49-9.07-3.52-12.56-0.07l-5.66,5.6
						c-3.44,3.4-9.1,3.55-12.44,0.05c-3.44-3.61-9.15-3.68-12.68-0.2l-4.42,4.37c-3.49,3.45-9.11,3.41-12.56-0.07l-3.11-3.15
						c-2.82-2.85-7.4-3.32-10.52-0.8c-3.76,3.03-3.87,8.59-0.4,11.76c19.3,17.63,78.59,75.27,90.47,128.09
						c1.22,5.42,6,9.29,11.55,9.32l0,0c5.56,0.03,10.38-3.78,11.66-9.18C2404.72,2642.29,2464.69,2585.35,2484.2,2567.95z
						 M2425.46,2600.62c-3,5.21-6.07,10.38-9.03,15.62l-2.24,3.92l-2.19,3.95c-1.45,2.64-3.05,5.2-4.45,7.86
						c-1.44,2.65-2.89,5.29-4.26,7.98c-1.33,2.7-2.57,5.45-3.79,8.2c-0.59,1.39-1.2,2.76-1.74,4.17l-1.56,4.25l-1.53,4.25
						c-0.52,1.41-1.05,2.82-1.52,4.25c-0.99,2.84-2.03,5.66-3.13,8.45c-0.57,1.39-1.06,2.81-1.55,4.23l-1.54,4.23
						c-2.22,5.6-3.91,11.36-6.18,16.99l-0.15-0.04l-0.15,0.03c-2.13-5.63-3.68-11.37-5.76-16.97l-1.44-4.23
						c-0.46-1.42-0.91-2.83-1.45-4.22c-1.04-2.79-2.01-5.6-2.93-8.44c-0.44-1.43-0.92-2.83-1.41-4.24l-1.43-4.24l-1.46-4.24
						c-0.5-1.41-1.08-2.78-1.64-4.17c-1.15-2.75-2.33-5.5-3.59-8.2c-1.31-2.69-2.69-5.34-4.07-7.98c-1.34-2.66-2.88-5.24-4.27-7.87
						l-2.1-3.95l-2.15-3.92c-2.84-5.24-5.79-10.42-8.67-15.64c-5.75-10.44-11.6-20.83-17.44-31.29l0.25-0.17
						c3.74,4.7,7.23,9.58,10.52,14.59c3.33,4.99,6.44,10.12,9.46,15.3c2.95,5.22,5.76,10.52,8.4,15.9c0.67,1.34,1.35,2.68,2,4.03
						l1.89,4.08c1.23,2.73,2.48,5.46,3.6,8.24c1.15,2.77,2.29,5.54,3.51,8.27c1.15,2.76,2.33,5.52,3.56,8.24
						c1.28,2.71,2.48,5.45,3.73,8.17c1.23,2.74,2.58,5.43,3.65,8.23c1.09,2.79,2.13,5.61,3.1,8.45c1,2.83,1.76,5.74,2.6,8.62
						c0.63,2.21,1.25,4.43,1.75,6.67c-0.08-0.55-0.16-1.1-0.23-1.66c-0.18-1.4-0.46-2.8-0.65-4.2c-0.44-2.8-0.84-5.6-1.21-8.4
						c-0.39-2.8-0.85-5.59-1.18-8.4c-0.61-5.63-1.23-11.27-2.16-16.87c-0.49-2.79-1.11-5.56-1.74-8.32c-0.32-1.38-0.65-2.76-1-4.13
						l-1.15-4.1c-1.53-5.46-3.17-10.88-4.67-16.34l-4.86-16.26l-4.85-16.26l-5.01-16.26l0.28-0.12c5.18,10.16,9.18,20.87,12.64,31.7
						l1.23,4.09c0.41,1.36,0.82,2.72,1.17,4.11c0.72,2.75,1.46,5.5,2.15,8.26c0.66,2.77,1.31,5.54,1.92,8.32
						c0.62,2.78,1.07,5.59,1.61,8.38l0.79,4.19c0.23,1.4,0.49,2.8,0.75,4.2c0.51,2.79,1.13,5.57,1.7,8.35
						c1.09,5.57,2.68,11.06,3.67,16.67c0.25,1.4,0.53,2.8,0.74,4.2c0.22,1.41,0.48,2.81,0.6,4.22c0.13,1.14,0.26,2.28,0.38,3.42
						c-0.03-4.05,0-8.11,0.18-12.16c0.26-5.71,0.81-11.42,0.96-17.14c0.17-5.71,0.08-11.43-0.13-17.15
						c-0.23-5.72-0.38-11.44-0.39-17.15c-0.06-5.72-0.07-11.43,0.02-17.15c0.27-11.43,0.76-22.85,1.85-34.27l0.3,0
						c0.83,11.44,1.04,22.88,1.04,34.31c-0.04,5.72-0.19,11.43-0.38,17.14c-0.15,5.71-0.44,11.43-0.8,17.14
						c-0.35,5.71-0.57,11.42-0.54,17.14c0.02,5.72,0.44,11.44,0.56,17.15c0.08,4.03,0.01,8.07-0.11,12.1
						c0.15-1.16,0.31-2.32,0.47-3.48c0.16-1.42,0.46-2.82,0.71-4.23c0.25-1.41,0.56-2.81,0.84-4.21c1.12-5.61,2.85-11.09,4.07-16.67
						c0.64-2.78,1.32-5.55,1.9-8.35c0.3-1.4,0.58-2.8,0.85-4.2l0.89-4.19c0.61-2.79,1.11-5.61,1.81-8.39
						c0.67-2.78,1.4-5.55,2.12-8.31l2.34-8.26c0.38-1.38,0.82-2.74,1.26-4.1l1.32-4.08c3.72-10.82,7.96-21.49,13.37-31.6l0.27,0.12
						l-5.38,16.24l-5.23,16.24l-5.24,16.23c-1.63,5.45-3.4,10.86-5.06,16.32l-1.25,4.09c-0.38,1.37-0.74,2.75-1.09,4.13
						c-0.7,2.76-1.38,5.53-1.94,8.32c-1.05,5.6-1.82,11.26-2.56,16.9c-0.39,2.82-0.92,5.61-1.38,8.42
						c-0.44,2.81-0.91,5.61-1.41,8.41c-0.23,1.4-0.54,2.8-0.75,4.2c-0.08,0.54-0.18,1.07-0.27,1.6c0.56-2.25,1.23-4.46,1.91-6.68
						c0.91-2.89,1.73-5.81,2.81-8.64c1.04-2.84,2.15-5.66,3.31-8.46c1.15-2.8,2.56-5.49,3.85-8.23l3.93-8.17
						c1.3-2.73,2.54-5.48,3.76-8.24c1.28-2.73,2.49-5.5,3.71-8.27c1.19-2.79,2.5-5.51,3.79-8.24l1.98-4.08l2.09-4.02
						c2.76-5.38,5.7-10.67,8.77-15.89c3.14-5.17,6.36-10.29,9.81-15.27c3.41-5,7.01-9.87,10.85-14.55l0.24,0.17L2425.46,2600.62z"/>
					<path class="st1" d="M2278.61,2190.67c-3.51,3.13-3.47,8.69,0.26,11.76c3.09,2.55,7.68,2.14,10.53-0.68l3.15-3.11
						c3.49-3.45,9.11-3.41,12.56,0.07l7.37,7.45c3.21,3.25,8.75,1.53,9.56-2.96v0c0.81-4.49,6.35-6.21,9.56-2.96l8.59,8.7
						c3.45,3.49,9.07,3.52,12.56,0.07l2.78-2.75c3.49-3.45,9.11-3.41,12.56,0.07l6.95,7.03c3.45,3.49,9.07,3.52,12.56,0.07
						l7.03-6.95c3.49-3.45,9.11-3.41,12.56,0.07l2.75,2.78c3.45,3.49,9.07,3.52,12.56,0.07l5.66-5.6c3.44-3.4,9.1-3.55,12.44-0.05
						c3.44,3.61,9.15,3.68,12.68,0.2l4.42-4.37c3.49-3.45,9.11-3.41,12.56,0.07l3.11,3.15c2.82,2.85,7.4,3.32,10.52,0.8
						c3.76-3.03,3.87-8.59,0.4-11.76c-19.3-17.63-78.59-75.27-90.47-128.09c-1.22-5.42-6-9.29-11.55-9.32l0,0
						c-5.56-0.03-10.38,3.78-11.66,9.18C2358.09,2116.33,2298.11,2173.27,2278.61,2190.67z M2337.35,2157.99
						c3-5.21,6.07-10.38,9.03-15.62l2.24-3.92l2.19-3.95c1.45-2.64,3.05-5.2,4.45-7.86c1.44-2.65,2.89-5.29,4.26-7.98
						c1.33-2.7,2.57-5.45,3.79-8.2c0.59-1.39,1.2-2.76,1.74-4.17l1.56-4.25l1.53-4.25c0.52-1.41,1.05-2.82,1.52-4.25
						c0.99-2.84,2.03-5.66,3.13-8.45c0.57-1.39,1.06-2.81,1.55-4.23l1.54-4.23c2.22-5.6,3.91-11.36,6.18-16.99l0.15,0.04l0.15-0.03
						c2.13,5.63,3.68,11.37,5.76,16.97l1.44,4.23c0.46,1.42,0.91,2.83,1.45,4.22c1.04,2.79,2.01,5.6,2.93,8.44
						c0.44,1.43,0.92,2.83,1.41,4.24l1.43,4.24l1.46,4.24c0.5,1.41,1.08,2.78,1.64,4.17c1.15,2.75,2.33,5.5,3.59,8.2
						c1.31,2.69,2.69,5.34,4.07,7.98c1.34,2.67,2.88,5.24,4.27,7.87l2.1,3.95l2.15,3.92c2.84,5.24,5.79,10.42,8.67,15.64
						c5.75,10.44,11.6,20.83,17.44,31.29l-0.25,0.17c-3.74-4.7-7.23-9.58-10.52-14.59c-3.33-4.99-6.44-10.12-9.46-15.3
						c-2.95-5.22-5.76-10.52-8.4-15.9c-0.67-1.34-1.35-2.68-2-4.03l-1.89-4.08c-1.23-2.73-2.48-5.46-3.6-8.24
						c-1.15-2.77-2.29-5.54-3.51-8.27c-1.15-2.76-2.33-5.51-3.56-8.24c-1.28-2.71-2.48-5.45-3.73-8.17
						c-1.23-2.74-2.58-5.43-3.65-8.23c-1.09-2.79-2.13-5.61-3.1-8.45c-1-2.83-1.76-5.74-2.6-8.62c-0.63-2.21-1.25-4.43-1.75-6.67
						c0.08,0.55,0.16,1.1,0.23,1.66c0.18,1.4,0.46,2.8,0.65,4.2c0.44,2.8,0.84,5.6,1.21,8.4c0.39,2.8,0.85,5.59,1.18,8.4
						c0.61,5.63,1.23,11.27,2.16,16.87c0.49,2.79,1.11,5.56,1.74,8.32c0.32,1.38,0.65,2.76,1,4.13l1.15,4.1
						c1.53,5.46,3.17,10.88,4.67,16.33l4.86,16.26l4.85,16.26l5.01,16.26l-0.28,0.12c-5.18-10.16-9.18-20.87-12.64-31.7l-1.23-4.09
						c-0.41-1.36-0.82-2.73-1.17-4.11c-0.72-2.75-1.46-5.5-2.15-8.26c-0.66-2.77-1.31-5.54-1.92-8.32
						c-0.62-2.78-1.07-5.59-1.61-8.38l-0.79-4.19c-0.23-1.4-0.49-2.8-0.75-4.2c-0.51-2.79-1.13-5.57-1.7-8.35
						c-1.09-5.57-2.68-11.06-3.67-16.67c-0.25-1.4-0.53-2.8-0.74-4.2c-0.22-1.41-0.48-2.81-0.6-4.22c-0.13-1.14-0.26-2.28-0.38-3.42
						c0.03,4.05,0,8.11-0.18,12.16c-0.26,5.71-0.81,11.42-0.96,17.14c-0.17,5.71-0.08,11.43,0.13,17.15
						c0.23,5.72,0.38,11.44,0.39,17.15c0.06,5.72,0.07,11.43-0.02,17.15c-0.27,11.43-0.75,22.85-1.85,34.27l-0.3,0
						c-0.83-11.44-1.04-22.88-1.04-34.31c0.04-5.72,0.19-11.43,0.38-17.14c0.15-5.71,0.44-11.43,0.8-17.14
						c0.35-5.71,0.57-11.42,0.54-17.14c-0.02-5.72-0.44-11.44-0.56-17.15c-0.08-4.03-0.01-8.07,0.11-12.1
						c-0.15,1.16-0.31,2.32-0.47,3.48c-0.16,1.42-0.46,2.82-0.71,4.23c-0.25,1.41-0.56,2.81-0.84,4.21
						c-1.12,5.61-2.85,11.09-4.07,16.67c-0.64,2.78-1.32,5.55-1.9,8.35c-0.3,1.4-0.58,2.8-0.85,4.2l-0.89,4.19
						c-0.61,2.79-1.11,5.61-1.81,8.39c-0.67,2.78-1.4,5.55-2.12,8.31l-2.34,8.26c-0.38,1.38-0.82,2.74-1.26,4.1l-1.32,4.08
						c-3.72,10.82-7.96,21.49-13.37,31.6l-0.27-0.12l5.38-16.24l5.23-16.24l5.24-16.23c1.63-5.45,3.4-10.86,5.06-16.32l1.25-4.09
						c0.38-1.37,0.74-2.75,1.09-4.13c0.7-2.76,1.38-5.53,1.94-8.32c1.05-5.6,1.82-11.26,2.56-16.9c0.39-2.82,0.92-5.61,1.38-8.42
						c0.44-2.81,0.91-5.61,1.41-8.41c0.23-1.4,0.54-2.8,0.75-4.2c0.08-0.54,0.18-1.07,0.26-1.6c-0.56,2.25-1.23,4.46-1.91,6.68
						c-0.91,2.89-1.73,5.81-2.81,8.64c-1.04,2.84-2.15,5.66-3.31,8.46c-1.15,2.8-2.56,5.49-3.85,8.23l-3.93,8.17
						c-1.3,2.73-2.54,5.48-3.76,8.24c-1.28,2.73-2.49,5.5-3.71,8.27c-1.19,2.79-2.5,5.51-3.79,8.24l-1.98,4.08l-2.09,4.02
						c-2.76,5.38-5.7,10.67-8.77,15.89c-3.14,5.17-6.36,10.29-9.81,15.27c-3.41,5-7.01,9.87-10.85,14.55l-0.24-0.17L2337.35,2157.99
						z"/>
				</g>
				<g>
					<path class="st1" d="M2291.95,2447.3c-22.85,0-41.45-18.59-41.45-41.44s18.59-41.45,41.45-41.45
						c22.85,0,41.44,18.59,41.44,41.45S2314.8,2447.3,2291.95,2447.3z M2291.95,2368.41c-20.65,0-37.45,16.8-37.45,37.45
						c0,20.65,16.8,37.44,37.45,37.44c20.65,0,37.44-16.8,37.44-37.44C2329.39,2385.21,2312.6,2368.41,2291.95,2368.41z"/>
				</g>
				<g>
					<path class="st1" d="M2471.2,2447.3c-22.85,0-41.44-18.59-41.44-41.44s18.59-41.45,41.44-41.45s41.45,18.59,41.45,41.45
						S2494.05,2447.3,2471.2,2447.3z M2471.2,2368.41c-20.65,0-37.44,16.8-37.44,37.45c0,20.65,16.8,37.44,37.44,37.44
						c20.65,0,37.45-16.8,37.45-37.44C2508.64,2385.21,2491.85,2368.41,2471.2,2368.41z"/>
				</g>
			</g>
		</g>
	</g>
	<g id="Text_00000023971334123817044900000018071401989337889722_">
		<g>
			<text transform="matrix(1 0 0 1 2287.1155 2498.7974)" class="st1 st3" style="font-size:380px;">T</text>
		</g>
		<g>
			<text transform="matrix(1 0 0 1 2271.8291 2403.5264)"><tspan x="0" y="0" class="st1" style="font-family:'Montserrat-SemiBold'; font-size:30px;">ES</tspan><tspan x="-0.98" y="26" class="st1" style="font-family:'Montserrat-SemiBold'; font-size:30px;">TD</tspan></text>
		</g>
		<g>
			<text transform="matrix(1 0 0 1 2455.1895 2403.5264)"><tspan x="0" y="0" class="st1" style="font-family:'Montserrat-SemiBold'; font-size:30px;">19</tspan><tspan x="0" y="26" class="st1" style="font-family:'Montserrat-SemiBold'; font-size:30px;">91</tspan></text>
		</g>
	</g>
</g>
<g id="_x31_500_x__x_1500_px_Logo_4">
	<g id="Background_00000070827380843249514340000010872852047707389325_">
		<rect y="1629.31" class="st0" width="1500" height="1500"/>
	</g>
	<g id="Graphic_Elements_00000117676056020047104000000017278120368954296211_">
		<g>
			<path class="st1" d="M821.28,2378.85c-55.84,11.72-52.86,70.19-58.15,103.8c-3.02,19.19-6.87,28.89-9.62,33.69v-107.8
				c7.01-18.57,24.53-57.98,52.56-76.38c37.38-24.53,136.67-26.97,150.69-115.7c0,0-45.56,31.01-140.18,50.86
				c-52.16,10.95-49.37,65.56-54.32,96.96c-2.74,17.4-6.21,26.44-8.76,31.06v-77.81c0-75.66,50.89-86.92,30.26-131.94
				c-20.63-45.02-33.77-155.7-33.77-155.7s-13.13,110.68-33.77,155.7c-20.63,45.02,30.26,56.28,30.26,131.94v77.81
				c-2.55-4.62-6.02-13.67-8.76-31.06c-4.95-31.4-2.16-86.01-54.32-96.96c-94.62-19.86-140.18-50.86-140.18-50.86
				c14.02,88.73,113.31,91.17,150.69,115.7c28.03,18.4,45.55,57.81,52.56,76.38v107.8c-2.75-4.8-6.6-14.5-9.62-33.69
				c-5.3-33.61-2.32-92.08-58.15-103.8c-101.3-21.26-150.07-54.45-150.07-54.45c15.01,94.99,121.31,97.6,161.33,123.86
				c30.36,19.92,49.19,62.86,56.52,82.43v44.71h7.02v-44.71c7.33-19.58,26.16-62.51,56.52-82.43
				c40.02-26.26,146.32-28.87,161.33-123.86C971.35,2324.4,922.58,2357.59,821.28,2378.85z M777.93,2330.37
				c0.31-0.87,0.74-1.69,1.11-2.53c0.36-0.85,0.82-1.65,1.27-2.45c0.85-1.64,1.9-3.16,2.92-4.71c4.25-6.07,9.71-11.2,15.62-15.62
				l4.55-3.15l1.15-0.78l1.19-0.7l2.39-1.4c3.15-1.93,6.45-3.55,9.75-5.17c6.65-3.11,13.49-5.76,20.38-8.17
				c6.91-2.36,13.88-4.48,20.85-6.53c6.99-1.99,13.94-4.01,20.88-6.06c6.91-2.1,13.79-4.3,20.45-7.04
				c6.65-2.73,13.14-5.98,18.84-10.52c-5.1,5.23-11.49,9.07-18.01,12.36c-6.58,3.22-13.41,5.87-20.29,8.25
				c-6.87,2.43-13.83,4.53-20.74,6.74c-6.92,2.16-13.83,4.3-20.64,6.69c-6.83,2.3-13.55,4.89-20.1,7.81
				c-3.26,1.49-6.52,2.99-9.61,4.78l-2.35,1.29l-1.17,0.65l-1.13,0.71l-4.53,2.85l-4.32,3.14c-1.41,1.09-2.73,2.28-4.12,3.4
				c-1.34,1.17-2.58,2.45-3.88,3.67c-0.61,0.64-1.19,1.32-1.79,1.98c-0.58,0.68-1.22,1.3-1.75,2.02c-2.27,2.75-4.22,5.76-5.87,8.94
				c-0.37,0.81-0.8,1.61-1.14,2.44c-0.31,0.84-0.69,1.66-0.95,2.52c-0.6,1.7-1.05,3.46-1.25,5.26
				C775.64,2337.41,776.59,2333.79,777.93,2330.37z M723.12,2335.79c-0.26-0.86-0.64-1.68-0.95-2.52c-0.34-0.83-0.76-1.63-1.14-2.44
				c-1.65-3.18-3.6-6.19-5.87-8.94c-0.52-0.72-1.17-1.35-1.75-2.02c-0.6-0.66-1.18-1.34-1.79-1.98c-1.3-1.22-2.54-2.5-3.88-3.67
				c-1.39-1.12-2.71-2.31-4.12-3.4l-4.32-3.14l-4.53-2.85l-1.13-0.71l-1.17-0.65l-2.35-1.29c-3.09-1.78-6.35-3.28-9.61-4.78
				c-6.55-2.92-13.27-5.51-20.1-7.81c-6.8-2.39-13.72-4.53-20.64-6.69c-6.91-2.21-13.87-4.3-20.74-6.74
				c-6.88-2.38-13.71-5.03-20.29-8.25c-6.52-3.29-12.91-7.12-18.01-12.36c5.7,4.54,12.19,7.78,18.84,10.52
				c6.66,2.74,13.54,4.94,20.45,7.04c6.93,2.05,13.89,4.07,20.88,6.06c6.97,2.05,13.94,4.17,20.85,6.53
				c6.89,2.41,13.73,5.06,20.38,8.17c3.3,1.62,6.6,3.24,9.75,5.17l2.39,1.4l1.19,0.7l1.15,0.78l4.55,3.15
				c5.9,4.42,11.37,9.55,15.62,15.62c1.02,1.54,2.07,3.06,2.92,4.71c0.45,0.8,0.91,1.6,1.27,2.45c0.37,0.84,0.8,1.66,1.11,2.53
				c1.34,3.41,2.29,7.04,2.31,10.68C724.18,2339.25,723.72,2337.49,723.12,2335.79z M723.27,2452.57c-0.49-1.77-1.08-3.51-1.77-5.2
				c-1.37-3.39-3.04-6.65-5.03-9.68c-3.93-6.12-8.96-11.45-14.6-15.96c-2.83-2.25-5.82-4.29-8.9-6.2c-3.1-1.86-6.3-3.58-9.59-5.1
				c-6.57-3.06-13.47-5.46-20.5-7.45c-7.02-2.06-14.18-3.72-21.37-5.32c-7.18-1.66-14.43-3.15-21.62-5.05
				c-7.19-1.86-14.36-4.02-21.19-7.08c-6.77-3.09-13.33-7.19-17.97-13.02c5.31,5.19,11.91,8.64,18.74,11.16
				c6.85,2.56,13.99,4.26,21.17,5.83c7.19,1.51,14.43,2.92,21.7,4.37c7.25,1.5,14.51,3.14,21.69,5.18
				c7.16,2.11,14.26,4.6,21.03,7.89c3.38,1.67,6.65,3.54,9.83,5.56c3.16,2.05,6.19,4.31,9.04,6.79
				c5.71,4.92,10.63,10.81,14.28,17.39c1.81,3.3,3.3,6.76,4.38,10.34c1.06,3.58,1.8,7.28,1.8,10.99
				C724.19,2456.14,723.77,2454.33,723.27,2452.57z M752.19,2245.67c-0.1,6.62-0.24,13.23-0.57,19.85
				c-0.3,6.62-0.75,13.23-1.41,19.85h-0.41c-0.67-6.62-1.11-13.23-1.41-19.85c-0.33-6.62-0.47-13.23-0.57-19.85
				c-0.06-6.62,0.12-13.23,0.26-19.85c0.07-3.31,0.14-6.62,0.28-9.92c0.13-3.31,0.35-6.62,0.52-9.92
				c0.36-6.62,0.62-13.23,0.46-19.85c-0.12-6.62-0.79-13.23-1.04-19.85c-0.12-3.31-0.17-6.62-0.11-9.92l0.07-4.96l0.15-4.96
				c0.26-6.62,0.6-13.23,1.39-19.85h0.41c0.78,6.62,1.13,13.23,1.39,19.85l0.15,4.96l0.07,4.96c0.06,3.31,0.01,6.62-0.11,9.92
				c-0.26,6.62-0.93,13.23-1.04,19.85c-0.16,6.62,0.1,13.23,0.46,19.85c0.17,3.31,0.4,6.62,0.52,9.92c0.14,3.31,0.22,6.62,0.28,9.92
				C752.08,2232.44,752.25,2239.06,752.19,2245.67z M901.3,2385.51c-6.83,3.06-14.01,5.23-21.19,7.08
				c-7.19,1.9-14.44,3.39-21.62,5.05c-7.19,1.61-14.35,3.26-21.37,5.32c-7.03,1.99-13.93,4.39-20.5,7.45
				c-3.29,1.52-6.49,3.23-9.59,5.1c-3.07,1.91-6.06,3.95-8.9,6.2c-5.65,4.51-10.67,9.84-14.6,15.96c-2,3.04-3.66,6.3-5.03,9.68
				c-0.69,1.7-1.28,3.43-1.77,5.2c-0.5,1.77-0.91,3.57-1.1,5.41c0-3.71,0.73-7.41,1.8-10.99c1.07-3.58,2.57-7.05,4.38-10.34
				c3.65-6.58,8.57-12.46,14.28-17.39c2.84-2.48,5.87-4.74,9.04-6.79c3.18-2.02,6.45-3.89,9.83-5.56c6.78-3.3,13.88-5.78,21.03-7.89
				c7.18-2.04,14.44-3.68,21.69-5.18c7.26-1.45,14.5-2.86,21.7-4.37c7.17-1.57,14.32-3.27,21.17-5.83
				c6.83-2.52,13.43-5.96,18.74-11.16C914.64,2378.32,908.08,2382.42,901.3,2385.51z"/>
			<g>
				<g>
					<path class="st1" d="M907.76,2718.37H592.24v-466.99c0-86.99,70.77-157.75,157.76-157.75s157.76,70.77,157.76,157.75V2718.37z
						 M596.24,2714.37h307.51v-462.99c0-84.78-68.97-153.75-153.76-153.75s-153.76,68.97-153.76,153.75V2714.37z"/>
				</g>
			</g>
			<g>
				<g>
					<path class="st1" d="M896.45,2707.06h-292.9v-459.6c0-78.59,63.93-142.52,142.52-142.52h7.85
						c78.59,0,142.52,63.93,142.52,142.52V2707.06z M607.55,2703.06h284.9v-455.6c0-76.38-62.14-138.52-138.52-138.52h-7.85
						c-76.38,0-138.52,62.14-138.52,138.52V2703.06z"/>
				</g>
			</g>
			<g>
				<rect x="605.55" y="2573.4" class="st1" width="288.9" height="4"/>
			</g>
			<path class="st0" d="M723.27,2452.57c-0.49-1.77-1.08-3.51-1.77-5.2c-1.37-3.39-3.04-6.65-5.03-9.68
				c-3.93-6.12-8.96-11.45-14.6-15.96c-2.83-2.25-5.82-4.29-8.9-6.2c-3.1-1.86-6.3-3.58-9.59-5.1c-6.57-3.06-13.47-5.46-20.5-7.45
				c-7.02-2.06-14.18-3.72-21.37-5.32c-7.18-1.66-14.43-3.15-21.62-5.05c-7.19-1.86-14.36-4.02-21.19-7.08
				c-6.77-3.09-13.33-7.19-17.97-13.02c5.31,5.19,11.91,8.64,18.74,11.16c6.85,2.56,13.99,4.26,21.17,5.83
				c7.19,1.51,14.43,2.92,21.7,4.37c7.25,1.5,14.51,3.14,21.69,5.18c7.16,2.11,14.26,4.6,21.03,7.89c3.38,1.67,6.65,3.54,9.83,5.56
				c3.16,2.05,6.19,4.31,9.04,6.79c5.71,4.92,10.63,10.81,14.28,17.39c1.81,3.3,3.3,6.76,4.38,10.34c1.06,3.58,1.8,7.28,1.8,10.99
				C724.19,2456.14,723.77,2454.33,723.27,2452.57z"/>
			<g>
				<g>
					<path class="st0" d="M777.93,2330.37c0.31-0.87,0.74-1.69,1.11-2.53c0.36-0.85,0.82-1.65,1.27-2.45
						c0.85-1.64,1.9-3.16,2.92-4.71c4.25-6.07,9.71-11.2,15.62-15.62l4.55-3.15l1.15-0.78l1.19-0.7l2.39-1.4
						c3.15-1.93,6.45-3.55,9.75-5.17c6.65-3.11,13.49-5.76,20.38-8.17c6.91-2.36,13.88-4.48,20.85-6.53
						c6.99-1.99,13.94-4.01,20.88-6.06c6.91-2.1,13.79-4.3,20.45-7.04c6.65-2.73,13.14-5.98,18.84-10.52
						c-5.1,5.23-11.49,9.07-18.01,12.36c-6.58,3.22-13.41,5.87-20.29,8.25c-6.87,2.43-13.83,4.53-20.74,6.74
						c-6.92,2.16-13.83,4.3-20.64,6.69c-6.83,2.3-13.55,4.89-20.1,7.81c-3.26,1.49-6.52,2.99-9.61,4.78l-2.35,1.29l-1.17,0.65
						l-1.13,0.71l-4.53,2.85l-4.32,3.14c-1.41,1.09-2.73,2.28-4.12,3.4c-1.34,1.17-2.58,2.45-3.88,3.67
						c-0.61,0.64-1.19,1.32-1.79,1.98c-0.58,0.68-1.22,1.3-1.75,2.02c-2.27,2.75-4.22,5.76-5.87,8.94c-0.37,0.81-0.8,1.61-1.14,2.44
						c-0.31,0.84-0.69,1.66-0.95,2.52c-0.6,1.7-1.05,3.46-1.25,5.26C775.64,2337.41,776.59,2333.79,777.93,2330.37z"/>
					<path class="st0" d="M723.12,2335.79c-0.26-0.86-0.64-1.68-0.95-2.52c-0.34-0.83-0.76-1.63-1.14-2.44
						c-1.65-3.18-3.6-6.19-5.87-8.94c-0.52-0.72-1.17-1.35-1.75-2.02c-0.6-0.66-1.18-1.34-1.79-1.98c-1.3-1.22-2.54-2.5-3.88-3.67
						c-1.39-1.12-2.71-2.31-4.12-3.4l-4.32-3.14l-4.53-2.85l-1.13-0.71l-1.17-0.65l-2.35-1.29c-3.09-1.78-6.35-3.28-9.61-4.78
						c-6.55-2.92-13.27-5.51-20.1-7.81c-6.8-2.39-13.72-4.53-20.64-6.69c-6.91-2.21-13.87-4.3-20.74-6.74
						c-6.88-2.38-13.71-5.03-20.29-8.25c-6.52-3.29-12.91-7.12-18.01-12.36c5.7,4.54,12.19,7.78,18.84,10.52
						c6.66,2.74,13.54,4.94,20.45,7.04c6.93,2.05,13.89,4.07,20.88,6.06c6.97,2.05,13.94,4.17,20.85,6.53
						c6.89,2.41,13.73,5.06,20.38,8.17c3.3,1.62,6.6,3.24,9.75,5.17l2.39,1.4l1.19,0.7l1.15,0.78l4.55,3.15
						c5.9,4.42,11.37,9.55,15.62,15.62c1.02,1.54,2.07,3.06,2.92,4.71c0.45,0.8,0.91,1.6,1.27,2.45c0.37,0.84,0.8,1.66,1.11,2.53
						c1.34,3.41,2.29,7.04,2.31,10.68C724.18,2339.25,723.72,2337.49,723.12,2335.79z"/>
					<path class="st0" d="M752.19,2245.67c-0.1,6.62-0.24,13.23-0.57,19.85c-0.3,6.62-0.75,13.23-1.41,19.85h-0.41
						c-0.67-6.62-1.11-13.23-1.41-19.85c-0.33-6.62-0.47-13.23-0.57-19.85c-0.06-6.62,0.12-13.23,0.26-19.85
						c0.07-3.31,0.14-6.62,0.28-9.92c0.13-3.31,0.35-6.62,0.52-9.92c0.36-6.62,0.62-13.23,0.46-19.85
						c-0.12-6.62-0.79-13.23-1.04-19.85c-0.12-3.31-0.17-6.62-0.11-9.92l0.07-4.96l0.15-4.96c0.26-6.62,0.6-13.23,1.39-19.85h0.41
						c0.78,6.62,1.13,13.23,1.39,19.85l0.15,4.96l0.07,4.96c0.06,3.31,0.01,6.62-0.11,9.92c-0.26,6.62-0.93,13.23-1.04,19.85
						c-0.16,6.62,0.1,13.23,0.46,19.85c0.17,3.31,0.4,6.62,0.52,9.92c0.14,3.31,0.22,6.62,0.28,9.92
						C752.08,2232.44,752.25,2239.06,752.19,2245.67z"/>
					<path class="st0" d="M901.3,2385.51c-6.83,3.06-14.01,5.23-21.19,7.08c-7.19,1.9-14.44,3.39-21.62,5.05
						c-7.19,1.61-14.35,3.26-21.37,5.32c-7.03,1.99-13.93,4.39-20.5,7.45c-3.29,1.52-6.49,3.23-9.59,5.1
						c-3.07,1.91-6.06,3.95-8.9,6.2c-5.65,4.51-10.67,9.84-14.6,15.96c-2,3.04-3.66,6.3-5.03,9.68c-0.69,1.7-1.28,3.43-1.77,5.2
						c-0.5,1.77-0.91,3.57-1.1,5.41c0-3.71,0.73-7.41,1.8-10.99c1.07-3.58,2.57-7.05,4.38-10.34c3.65-6.58,8.57-12.46,14.28-17.39
						c2.84-2.48,5.87-4.74,9.04-6.79c3.18-2.02,6.45-3.89,9.83-5.56c6.78-3.3,13.88-5.78,21.03-7.89
						c7.18-2.04,14.44-3.68,21.69-5.18c7.26-1.45,14.5-2.86,21.7-4.37c7.17-1.57,14.32-3.27,21.17-5.83
						c6.83-2.52,13.43-5.96,18.74-11.16C914.64,2378.32,908.08,2382.42,901.3,2385.51z"/>
				</g>
			</g>
			<g>
				<path class="st1" d="M703.56,2560.44h-82.89v-82.89h82.89V2560.44z M624.67,2556.44h74.89v-74.89h-74.89V2556.44z"/>
			</g>
			<g>
				<path class="st1" d="M877.72,2560.44h-82.89v-82.89h82.89V2560.44z M798.83,2556.44h74.89v-74.89h-74.89V2556.44z"/>
			</g>
			<g>
				<g>
					<path class="st1" d="M816.79,2155.93l1.33,5.75c0.87,3.75,3.79,6.68,7.54,7.54l5.75,1.33l-5.75,1.33
						c-3.75,0.87-6.68,3.79-7.54,7.54l-1.33,5.75l-1.33-5.75c-0.87-3.75-3.79-6.68-7.54-7.54l-5.75-1.33l5.75-1.33
						c3.75-0.87,6.68-3.79,7.54-7.54L816.79,2155.93z"/>
					<path class="st1" d="M845.17,2183.42l2.03,8.79c1.32,5.73,5.8,10.21,11.54,11.54l8.79,2.03l-8.79,2.03
						c-5.73,1.32-10.21,5.8-11.54,11.54l-2.03,8.79l-2.03-8.79c-1.32-5.73-5.8-10.21-11.54-11.54l-8.79-2.03l8.79-2.03
						c5.73-1.32,10.21-5.8,11.54-11.54L845.17,2183.42z"/>
					<path class="st1" d="M808.22,2219.55l0.78,3.37c0.51,2.2,2.22,3.92,4.42,4.42l3.37,0.78l-3.37,0.78
						c-2.2,0.51-3.92,2.22-4.42,4.42l-0.78,3.37l-0.78-3.37c-0.51-2.2-2.22-3.92-4.42-4.42l-3.37-0.78l3.37-0.78
						c2.2-0.51,3.92-2.22,4.42-4.42L808.22,2219.55z"/>
				</g>
				<g>
					<path class="st1" d="M683.21,2155.93l-1.33,5.75c-0.87,3.75-3.79,6.68-7.54,7.54l-5.75,1.33l5.75,1.33
						c3.75,0.87,6.68,3.79,7.54,7.54l1.33,5.75l1.33-5.75c0.87-3.75,3.79-6.68,7.54-7.54l5.75-1.33l-5.75-1.33
						c-3.75-0.87-6.68-3.79-7.54-7.54L683.21,2155.93z"/>
					<path class="st1" d="M654.83,2183.42l-2.03,8.79c-1.32,5.73-5.8,10.21-11.54,11.54l-8.79,2.03l8.79,2.03
						c5.73,1.32,10.21,5.8,11.54,11.54l2.03,8.79l2.03-8.79c1.32-5.73,5.8-10.21,11.54-11.54l8.79-2.03l-8.79-2.03
						c-5.73-1.32-10.21-5.8-11.54-11.54L654.83,2183.42z"/>
					<path class="st1" d="M691.78,2219.55l-0.78,3.37c-0.51,2.2-2.22,3.92-4.42,4.42l-3.37,0.78l3.37,0.78
						c2.2,0.51,3.92,2.22,4.42,4.42l0.78,3.37l0.78-3.37c0.51-2.2,2.22-3.92,4.42-4.42l3.37-0.78l-3.37-0.78
						c-2.2-0.51-3.92-2.22-4.42-4.42L691.78,2219.55z"/>
				</g>
			</g>
		</g>
	</g>
	<g id="Text_00000057857955140469085430000006831556057518023608_">
		<g>
			
				<text transform="matrix(1 0 0 1 620.2524 2695.6118)" class="st1" style="font-family:'Montserrat-Medium'; font-size:62.7045px; letter-spacing:1;">DESIGN</text>
		</g>
		<g>
			<text transform="matrix(1 0 0 1 636.8198 2516.6704)"><tspan x="0" y="0" class="st1" style="font-family:'Montserrat-SemiBold'; font-size:38.0339px;">ES</tspan><tspan x="-1.24" y="32.89" class="st1" style="font-family:'Montserrat-SemiBold'; font-size:38.0339px;">TD</tspan></text>
		</g>
		<g>
			<text transform="matrix(1 0 0 1 816.1982 2516.6704)"><tspan x="0" y="0" class="st1" style="font-family:'Montserrat-SemiBold'; font-size:38.0339px;">19</tspan><tspan x="0" y="32.89" class="st1" style="font-family:'Montserrat-SemiBold'; font-size:38.0339px;">91</tspan></text>
		</g>
		<g>
			<text transform="matrix(1 0 0 1 623.5127 2642.3403)" class="st1 st3" style="font-size:84.7221px;">FLORAL</text>
		</g>
	</g>
</g>
<g id="_x31_500_x__x_1500_px_Logo_3">
	<g id="Background_00000080914624444082768120000008805685247473597110_">
	</g>
	<g id="Graphic_Elements_00000170275412175707466750000010660105895879091075_">
	</g>
	<g id="Text_00000098913046459987988070000013758590142562895771_">
	</g>
</g>
<g id="_x31_500_x__x_1500_px_Logo_2">
	<g id="Background_00000038399621308369532110000011913733770812616870_">
		<rect x="1629.78" class="st0" width="1500" height="1500"/>
	</g>
	<g id="Graphic_Elements_00000125593918488873060140000016943313907451115941_">
		<g>
			<g>
				<path class="st1" d="M2419.36,686.63c-28.01,81-53.71,139.3-55.53,142.18c0,0-11.29-53.41-8.5-109.97
					c2.24-45.26,6.74-76.97,8.45-87.84c2.94-3.34,5.45-6.74,5.92-9.01c0.62-3.04-0.39-7.13-1.53-10.41
					c-0.87-2.5-4.21-2.95-5.75-0.79l-2.49,3.48l-3.01,6.44c0,0,2.82-10.74,1.08-13.71c-0.5-0.86-2.63-1.8-3.62-1.67
					c-5.46,0.74-7.81,6.19-4.88,20.48c-2.69,16.62-14.55,93.97-7.59,125.71c0,0-33.37-90.46-72.46-123.01
					c-39.09-32.56-72.89-64.26-72.89-64.26s14.89,154.45,147.6,223.83c0,0,20.59,91.11,19.73,124.46l14.57-0.11
					c0,0-9.51-59.26-11.61-68.65c0,0,86.25-38.12,113.1-100.76S2563,570.44,2563,570.44S2447.36,605.63,2419.36,686.63z
					 M2321.62,748.48c-6.8-8.09-13.33-16.38-19.76-24.74c-7.61-9.9-15.08-19.89-22.37-30.02l-10.84-15.26
					c-3.54-5.14-7.15-10.23-10.61-15.42c-5.9-8.72-11.71-17.52-17.25-26.5c-0.3-0.49,0.38-0.98,0.75-0.54
					c6.79,8.08,13.31,16.36,19.73,24.71c3.84,4.92,7.54,9.95,11.3,14.92l11.07,15.09c7.32,10.11,14.45,20.34,21.46,30.68
					c5.91,8.73,11.72,17.54,17.26,26.54C2322.67,748.43,2321.99,748.92,2321.62,748.48z M2486.15,666.6
					c-4.9,7.57-9.85,15.1-14.47,22.82c-4.62,7.7-9.12,15.48-12.92,23.52l-2.66,6.06l-1.36,3.21c-0.46,1.07-0.99,2.11-1.48,3.16
					c-2.06,4.16-4.34,8.17-6.83,12.02c-2.48,3.86-5.12,7.6-7.85,11.25c-2.72,3.66-5.57,7.22-8.5,10.7
					c-5.84,6.98-12,13.66-18.36,20.13c-4.83,4.85-9.74,9.62-14.83,14.18c-0.36,0.32-0.86-0.18-0.53-0.54
					c4.58-5.06,9.1-10.16,13.52-15.34c5.89-6.83,11.59-13.82,17.09-20.93c5.42-7.17,10.75-14.4,15.36-22.03
					c2.31-3.81,4.53-7.66,6.42-11.63c0.45-1,0.94-1.99,1.37-3l1.26-3.05l2.73-6.38c4.01-8.29,8.62-16.16,13.43-23.89
					c2.47-3.82,4.93-7.64,7.5-11.38c2.51-3.79,5.17-7.46,7.8-11.16c9.29-12.83,19.01-25.33,29.32-37.32
					c0.31-0.37,0.88,0.07,0.61,0.47C2503.78,640.46,2494.85,653.46,2486.15,666.6z"/>
				<path class="st1" d="M2363.12,529.85c-11.41,1.89-19.13,12.67-17.24,24.08c1.89,11.41,12.67,19.13,24.08,17.24
					c11.41-1.89,19.13-12.67,17.24-24.08S2374.53,527.96,2363.12,529.85z"/>
				<path class="st1" d="M2374.7,583.49c-2.26,1.8-3.39,4.64-2.99,7.5c1.12,8.06,4.97,24.42,18.08,33.38
					c17.87,12.21,30.53,18.95,32.62,23.36c0,0,16.44-21.06,6.7-44.35c-7.65-18.31-22.78-28.53-28.91-32.06
					c-1.57-0.91-3.51-0.8-4.96,0.28c-1.93,1.44-2.4,4.14-1.04,6.12c3.33,4.86,8.84,13.91,9.24,21.07l-18.5-15.23
					C2381.98,581.13,2377.71,581.09,2374.7,583.49z"/>
				<path class="st1" d="M2457.84,588.22c0,0-2.42-27.64-8.15-28.76c-10.76-2.1-7.14,5.94-14.4,10.87c-2.4,1.63-4.16,4.18-4.05,7.08
					c0.07,1.69,0.6,3.52,2.08,5.13C2437.46,587.06,2457.84,588.22,2457.84,588.22z"/>
				<path class="st1" d="M2392.37,527.48L2392.37,527.48c1.94,2.99,5.74,4.25,9.04,2.9c6.11-2.51,16.26-5.3,24.74-0.99
					c0,0-14.38,1.93-22.79,11.81c-3.4,4-3.82,9.76-1.1,14.25v0c2.56,4.22,7.37,6.46,12.26,5.78c8.67-1.21,21.81-4.61,27.9-14.16
					c9.53-14.93,16.57-38.06,16.57-38.06s-11.13,6.6-29.6,0.37c-12.43-4.19-26.72,2.7-34.72,7.65
					C2391.11,519.24,2390.08,523.95,2392.37,527.48z"/>
				<path class="st1" d="M2384.96,490.48c1.86,1.27,4.35,1.05,5.97-0.51l9.91-9.6l-6.66,11.49c-0.97,1.67-0.78,3.77,0.47,5.24
					c1.32,1.55,3.51,2.07,5.36,1.2c4.01-1.87,10.69-5.89,13.68-12.81c4.42-10.24-0.62-33.86-0.62-33.86s-17.06,13.24-24.41,20.79
					c-4.9,5.03-5.75,10.8-5.77,14.09C2382.88,488.1,2383.65,489.58,2384.96,490.48z"/>
				<path class="st1" d="M2332.19,518.26c3.11,4.46,9.08,5.83,13.83,3.17c4.17-2.34,6.26-7.19,5.07-11.83l-5.7-22.33l12.93,20.84
					c1.89,3.04,5.43,4.65,8.96,4.06h0c4.5-0.74,7.73-4.78,7.38-9.33c-0.76-9.91-3.73-26.67-14.71-37
					c-16.36-15.41-28.14-20.93-28.14-20.93s-13.8,26.05-11.26,45.56C2322.03,501.74,2327.68,511.79,2332.19,518.26z"/>
				<path class="st1" d="M2290.4,531.27c9.36,6.96,25.04,6.83,32.95,6.23c1.83-0.14,2.52-2.44,1.1-3.59l-23.41-19.07l15.37,5.31
					c0,0-4.28-14.91-10.55-19.99c-6.27-5.08-37.46,2.12-37.46,2.12S2277.49,521.67,2290.4,531.27z"/>
				<path class="st1" d="M2300.09,559.75c0.52-2.35,0.7-4.69-4.67-5.68c-5.37-0.99-9.97-3.45-9.97-3.45l10.83-1.26
					c1.08-0.13,1.46-1.5,0.58-2.15c-3.51-2.59-10.05-7.04-13.6-7.1c-4.99-0.08-11.43,7.55-20.66,16.1c0,0,11.59,8.5,19.56,12.84
					C2290.12,573.39,2299.57,562.1,2300.09,559.75z"/>
				<path class="st1" d="M2331.51,561.48l-1.08-6.56c-0.4-2.44-2.82-4.15-5.2-3.46c-10.08,2.89-20.43,25.2-21.35,33.87
					c-1.06,10.02-6.38,34.34-6.38,34.34c35.99,2.03,55.08-23.2,57.03-29.9s-8.17-15.53-16.13-13.37
					c-7.96,2.17-18.28,15.76-18.28,15.76c-0.59-8.21,6.48-19.51,10.02-24.6C2331.35,565.78,2331.86,563.61,2331.51,561.48z"/>
			</g>
			<g>
				<path class="st1" d="M2612.78,1099.64h-466V629.85c0-62.24,24.24-120.75,68.24-164.76c44.01-44.01,102.52-68.24,164.76-68.24
					s120.75,24.24,164.76,68.24s68.24,102.52,68.24,164.76V1099.64z M2150.78,1095.64h458V629.85c0-61.17-23.82-118.67-67.07-161.93
					c-43.25-43.25-100.76-67.07-161.93-67.07s-118.67,23.82-161.93,67.07c-43.25,43.25-67.07,100.76-67.07,161.93V1095.64z"/>
			</g>
			<g>
				<path class="st1" d="M2597.78,1084.64h-436V629.85c0-58.23,22.68-112.97,63.85-154.15s95.92-63.85,154.15-63.85
					c58.23,0,112.97,22.68,154.15,63.85s63.85,95.92,63.85,154.15V1084.64z M2165.78,1080.64h428V629.85c0-118-96-214-214-214
					s-214,96-214,214V1080.64z"/>
			</g>
			<g>
				<rect x="2163.78" y="910.54" class="st1" width="432" height="4"/>
			</g>
			<g>
				<path class="st1" d="M2508.37,510.66l1.72,7.44c1.12,4.85,4.91,8.64,9.76,9.76l7.44,1.72l-7.44,1.72
					c-4.85,1.12-8.64,4.91-9.76,9.76l-1.72,7.44l-1.72-7.44c-1.12-4.85-4.91-8.64-9.76-9.76l-7.44-1.72l7.44-1.72
					c4.85-1.12,8.64-4.91,9.76-9.76L2508.37,510.66z"/>
				<g>
					<path class="st1" d="M2508.37,561.12c-17.4,0-31.56-14.16-31.56-31.56c0-17.4,14.16-31.56,31.56-31.56s31.56,14.16,31.56,31.56
						C2539.93,546.97,2525.77,561.12,2508.37,561.12z M2508.37,502.01c-15.2,0-27.56,12.36-27.56,27.56
						c0,15.2,12.36,27.56,27.56,27.56s27.56-12.36,27.56-27.56C2535.93,514.37,2523.57,502.01,2508.37,502.01z"/>
				</g>
			</g>
			<g>
				<path class="st1" d="M2563,1040.2l0.6,2.59c0.39,1.69,1.71,3.01,3.4,3.4l2.59,0.6l-2.59,0.6c-1.69,0.39-3.01,1.71-3.4,3.4
					l-0.6,2.59l-0.6-2.59c-0.39-1.69-1.71-3.01-3.4-3.4l-2.59-0.6l2.59-0.6c1.69-0.39,3.01-1.71,3.4-3.4L2563,1040.2z"/>
				<g>
					<path class="st1" d="M2563,1059.07c-6.78,0-12.29-5.51-12.29-12.29s5.51-12.29,12.29-12.29c6.78,0,12.29,5.51,12.29,12.29
						S2569.78,1059.07,2563,1059.07z M2563,1038.49c-4.57,0-8.29,3.72-8.29,8.29s3.72,8.29,8.29,8.29s8.29-3.72,8.29-8.29
						S2567.57,1038.49,2563,1038.49z"/>
				</g>
			</g>
			<g>
				<path class="st1" d="M2263.12,888.91c-19.25,0-37.39-3.82-51.06-10.76c-14.1-7.16-21.87-16.83-21.87-27.24
					s7.77-20.08,21.87-27.24c13.67-6.94,31.81-10.76,51.06-10.76c19.26,0,37.39,3.82,51.06,10.76c14.1,7.16,21.87,16.83,21.87,27.24
					s-7.77,20.08-21.87,27.24C2300.51,885.08,2282.37,888.91,2263.12,888.91z M2263.12,816.91c-38.01,0-68.93,15.25-68.93,34
					s30.92,34,68.93,34s68.93-15.25,68.93-34S2301.13,816.91,2263.12,816.91z"/>
			</g>
			<g>
				<path class="st1" d="M2502.17,888.91c-19.25,0-37.39-3.82-51.06-10.76c-14.1-7.16-21.87-16.83-21.87-27.24
					s7.77-20.08,21.87-27.24c13.67-6.94,31.81-10.76,51.06-10.76s37.39,3.82,51.06,10.76c14.1,7.16,21.87,16.83,21.87,27.24
					s-7.77,20.08-21.87,27.24C2539.56,885.08,2521.42,888.91,2502.17,888.91z M2502.17,816.91c-38.01,0-68.93,15.25-68.93,34
					s30.92,34,68.93,34s68.93-15.25,68.93-34S2540.18,816.91,2502.17,816.91z"/>
			</g>
			<path class="st1" d="M2524.69,738.79l1.72,7.44c1.12,4.85,4.91,8.64,9.76,9.76l7.44,1.72l-7.44,1.72
				c-4.85,1.12-8.64,4.91-9.76,9.76l-1.72,7.44l-1.72-7.44c-1.12-4.85-4.91-8.64-9.76-9.76l-7.44-1.72l7.44-1.72
				c4.85-1.12,8.64-4.91,9.76-9.76L2524.69,738.79z"/>
			<path class="st1" d="M2208.84,697.1l1.33,5.75c0.87,3.75,3.79,6.68,7.54,7.54l5.75,1.33l-5.75,1.33
				c-3.75,0.87-6.68,3.79-7.54,7.54l-1.33,5.75l-1.33-5.75c-0.87-3.75-3.79-6.68-7.54-7.54l-5.75-1.33l5.75-1.33
				c3.75-0.87,6.68-3.79,7.54-7.54L2208.84,697.1z"/>
			<path class="st1" d="M2556.21,673.64l2.13,9.23c1.39,6.02,6.09,10.72,12.11,12.11l9.23,2.13l-9.23,2.13
				c-6.02,1.39-10.72,6.09-12.11,12.11l-2.13,9.23l-2.13-9.23c-1.39-6.02-6.09-10.72-12.11-12.11l-9.23-2.13l9.23-2.13
				c6.02-1.39,10.72-6.09,12.11-12.11L2556.21,673.64z"/>
			<path class="st1" d="M2569.32,776.61l0.78,3.37c0.51,2.2,2.22,3.92,4.42,4.42l3.37,0.78l-3.37,0.78
				c-2.2,0.51-3.92,2.22-4.42,4.42l-0.78,3.37l-0.78-3.37c-0.51-2.2-2.22-3.92-4.42-4.42l-3.37-0.78l3.37-0.78
				c2.2-0.51,3.92-2.22,4.42-4.42L2569.32,776.61z"/>
			<path class="st1" d="M2256.97,744.56l2.03,8.79c1.32,5.73,5.8,10.21,11.54,11.54l8.79,2.03l-8.79,2.03
				c-5.73,1.32-10.21,5.8-11.54,11.54l-2.03,8.79l-2.03-8.79c-1.32-5.73-5.8-10.21-11.54-11.54l-8.79-2.03l8.79-2.03
				c5.73-1.32,10.21-5.8,11.54-11.54L2256.97,744.56z"/>
			<path class="st1" d="M2202.79,779.97l0.78,3.37c0.51,2.2,2.22,3.92,4.42,4.42l3.37,0.78l-3.37,0.78
				c-2.2,0.51-3.92,2.22-4.42,4.42l-0.78,3.37l-0.78-3.37c-0.51-2.2-2.22-3.92-4.42-4.42l-3.37-0.78l3.37-0.78
				c2.2-0.51,3.92-2.22,4.42-4.42L2202.79,779.97z"/>
		</g>
	</g>
	<g id="Text_00000029748569563288375180000005415435388236801209_">
		<g>
			<text transform="matrix(1 0 0 1 2184.7019 1003.0334)" class="st1 st3" style="font-size:110px;">Blooming</text>
		</g>
		<g>
			
				<text transform="matrix(1 0 0 1 2184.2275 1057.0712)" class="st1" style="font-family:'Montserrat-Medium'; font-size:58px; letter-spacing:1;">BOTANICAL</text>
		</g>
		<g>
			<text transform="matrix(1 0 0 1 2216.7627 862.2156)" class="st1" style="font-family:'Montserrat-Bold'; font-size:35px;">ESTD</text>
		</g>
		<g>
			<text transform="matrix(1 0 0 1 2466.3977 862.2156)" class="st1" style="font-family:'Montserrat-Bold'; font-size:35px;">1991</text>
		</g>
	</g>
</g>
<g id="_x31_500_x__x_1500_px_Logo_1">
	<g id="Background_00000039116601411721455970000008381803140534175626_">
	</g>
	<g id="Graphic_Elements_00000031195152422813952640000005128979963569529744_">
		<path class="st2" d="M1191.39,465.43l0.03,0.02c0,0-41.2-100.51-65.74-176.33c-24.55-75.82-101.96-75.82-164.27-121.67
			c0,0,78.12,111.02,137.83,169.28c34.64,33.8,50.22,65.58,57.15,85.74c-32.96-37.32-77.48-79.67-133.62-115.72
			c-14.22-9.13-29.45-16.8-45.29-23.24c-19.21-24.86-136.07-169.93-253.15-178.79c-128.08-9.69-188.02,34.65-188.02,34.65
			s81.87,11.85,162.36,25.2c-69.68,2.1-118.92,28.24-173.3,71.44c-75.41,59.9-205.56,48.53-211.38,176.59
			c-5.82,128.06-5.82,128.06-5.82,128.06s94.28-79.3,118.66-155.89c24.38-76.58,66.6-108.71,100.51-129.46
			c16.59-10.15,46.06-35.42,89.57-54.29l-7.88,5.53c0,0-68.86,41.73-82.06,88.73c-13.19,47,4.43,137.59,4.43,137.59
			s83.42-60.76,71.45-139.36c-11.45-75.15,52.65-104.98,58.3-107.45c38.51-9.48,84.81-11.92,139.47,1.37
			c67.35,16.38,111.48,54.89,135.58,82.29c-128.41-34.57-275.96-5.3-275.96-5.3s172.76,79.35,254.9,76.71
			c39.41-1.27,70.34-1.32,91.85-1.03c23.33,0.31,45.63,8.76,62.7,23.62c41.31,35.96,116.83,131.96,137.16,195.62l19.82-41
			C1226.7,518.35,1214.9,496.82,1191.39,465.43z"/>
		<path class="st2" d="M330.27,1029.57l-0.03-0.02c0,0,41.2,100.51,65.74,176.33c24.55,75.82,101.96,75.82,164.27,121.67
			c0,0-78.12-111.02-137.83-169.28c-34.64-33.8-50.22-65.58-57.15-85.74c32.96,37.32,77.48,79.67,133.62,115.72
			c14.22,9.13,29.45,16.8,45.29,23.24c19.21,24.86,136.07,169.93,253.15,178.79c128.08,9.69,188.02-34.65,188.02-34.65
			s-81.87-11.85-162.36-25.2c69.68-2.1,118.92-28.24,173.3-71.44c75.41-59.9,205.56-48.53,211.38-176.59
			c5.82-128.06,5.82-128.06,5.82-128.06s-94.28,79.3-118.66,155.89c-24.38,76.58-66.6,108.71-100.51,129.46
			c-16.59,10.15-46.06,35.42-89.57,54.29l7.88-5.53c0,0,68.86-41.73,82.06-88.73c13.19-47-4.43-137.59-4.43-137.59
			s-83.42,60.76-71.45,139.36c11.45,75.15-52.65,104.98-58.3,107.45c-38.51,9.48-84.81,11.92-139.47-1.37
			c-67.35-16.38-111.48-54.89-135.58-82.29c128.41,34.57,275.96,5.3,275.96,5.3s-172.76-79.35-254.9-76.71
			c-39.41,1.27-70.34,1.32-91.85,1.03c-23.33-0.31-45.63-8.76-62.7-23.62c-41.31-35.96-116.83-131.96-137.16-195.62l-19.82,41
			C294.97,976.65,306.77,998.18,330.27,1029.57z"/>
		<g>
			<path class="st2" d="M760.83,1470c-153.59,0-297.98-55.86-406.59-157.28C245.64,1211.29,185.83,1076.44,185.83,933V562
				c0-143.44,59.81-278.29,168.41-379.72C462.85,80.86,607.25,25,760.83,25s297.98,55.86,406.59,157.28
				c108.6,101.43,168.41,236.28,168.41,379.72v371c0,143.44-59.81,278.29-168.41,379.72C1058.82,1414.14,914.42,1470,760.83,1470z
				 M760.83,33.97c-311.76,0-565.39,236.87-565.39,528.03v371c0,291.15,253.63,528.03,565.39,528.03s565.39-236.87,565.39-528.03
				V562C1326.23,270.84,1072.59,33.97,760.83,33.97z"/>
		</g>
		<g>
			<path class="st2" d="M760.83,1436.35c-143.96,0-279.31-52.36-381.11-147.43c-101.8-95.07-157.86-221.47-157.86-355.92V562
				c0-134.45,56.06-260.85,157.86-355.92c101.8-95.07,237.15-147.43,381.11-147.43s279.31,52.36,381.11,147.43
				c101.8,95.07,157.86,221.47,157.86,355.92v371c0,134.45-56.06,260.85-157.86,355.92
				C1040.14,1383.99,904.8,1436.35,760.83,1436.35z M760.83,67.62c-141.4,0-274.33,51.42-374.32,144.8
				C286.53,305.8,231.47,429.95,231.47,562v371c0,132.05,55.06,256.2,155.05,349.58c99.98,93.37,232.92,144.8,374.32,144.8
				s274.33-51.42,374.32-144.8c99.98-93.38,155.05-217.53,155.05-349.58V562c0-132.05-55.06-256.2-155.05-349.58
				C1035.17,119.05,902.23,67.62,760.83,67.62z"/>
		</g>
	</g>
	<g id="Text_00000119081342014913674830000008843557187679631035_">
		<text transform="matrix(1.3201 0 0 1 419.6431 847.5898)" class="st2 st3 st4">S</text>
		<text transform="matrix(1.1622 0 0 1 688.5732 1005.2617)" class="st2 st3 st4">K</text>
	</g>
	<text transform="matrix(1 0 0 1 5601.3271 2359.4258)" style="font-family:'MyriadPro-Regular'; font-size:12px;">Lorem ipsum</text>
</g>
</svg>
